<?xml version="1.0" encoding="utf-8"?>
<!-- Generator: Adobe Illustrator 24.2.0, SVG Export Plug-In . SVG Version: 6.00 Build 0)  -->
<svg version="1.1" id="Capa_1" xmlns="http://www.w3.org/2000/svg" xmlns:xlink="http://www.w3.org/1999/xlink" x="0px" y="0px"
	 viewBox="0 0 482.2 72.8" style="enable-background:new 0 0 482.2 72.8;" xml:space="preserve">
<style type="text/css">
	.st0{enable-background:new    ;}
	.st1{fill:#394395;}
	.st2{fill:#B24190;}
</style>
<g class="st0">
	<path class="st1" d="M71.8,71.6H56.1l-6.2-16.3H21.2l-5.9,16.3H0L27.9,0h15.3L71.8,71.6z M45.2,43.3l-9.9-26.6l-9.7,26.6H45.2z"/>
	<path class="st1" d="M74.6,56.8l13.8-2.1c0.6,2.7,1.8,4.7,3.6,6.1c1.8,1.4,4.3,2.1,7.5,2.1c3.5,0,6.2-0.7,8-2
		c1.2-0.9,1.8-2.1,1.8-3.7c0-1-0.3-1.9-1-2.6c-0.7-0.7-2.2-1.3-4.6-1.8c-11.1-2.4-18.1-4.7-21-6.7c-4.1-2.8-6.2-6.7-6.2-11.7
		c0-4.5,1.8-8.3,5.3-11.3c3.5-3.1,9-4.6,16.5-4.6c7.1,0,12.4,1.2,15.8,3.5c3.5,2.3,5.8,5.7,7.1,10.3l-12.9,2.4
		c-0.6-2-1.6-3.6-3.1-4.6c-1.5-1.1-3.8-1.6-6.6-1.6c-3.6,0-6.2,0.5-7.8,1.5c-1,0.7-1.6,1.6-1.6,2.8c0,1,0.5,1.8,1.4,2.5
		c1.2,0.9,5.5,2.2,12.8,3.9c7.3,1.7,12.4,3.7,15.3,6.1c2.9,2.4,4.3,5.8,4.3,10.2c0,4.8-2,8.8-6,12.3c-4,3.4-9.8,5.1-17.6,5.1
		c-7.1,0-12.7-1.4-16.8-4.3C78.5,65.6,75.8,61.7,74.6,56.8z"/>
	<path class="st1" d="M134,19.7h12.6v7.1c4.5-5.5,9.9-8.3,16.2-8.3c3.3,0,6.2,0.7,8.6,2.1s4.4,3.4,6,6.2c2.3-2.8,4.7-4.8,7.4-6.2
		s5.5-2.1,8.4-2.1c3.8,0,7,0.8,9.7,2.3c2.6,1.5,4.6,3.8,5.9,6.8c0.9,2.2,1.4,5.8,1.4,10.7v33.2h-13.7V41.9c0-5.1-0.5-8.5-1.4-10
		c-1.3-2-3.2-2.9-5.9-2.9c-1.9,0-3.7,0.6-5.4,1.8c-1.7,1.2-2.9,2.9-3.7,5.2c-0.7,2.3-1.1,5.8-1.1,10.7v24.9h-13.7V43.2
		c0-5-0.2-8.3-0.7-9.8s-1.2-2.6-2.3-3.3c-1-0.7-2.4-1.1-4.2-1.1c-2.1,0-4,0.6-5.7,1.7c-1.7,1.1-2.9,2.8-3.6,4.9s-1.1,5.7-1.1,10.7
		v25.2H134V19.7z"/>
	<path class="st1" d="M234.2,35.5l-12.5-2.2c1.4-5,3.8-8.7,7.2-11.1c3.4-2.4,8.5-3.6,15.2-3.6c6.1,0,10.7,0.7,13.7,2.2
		c3,1.4,5.1,3.3,6.3,5.5c1.2,2.2,1.8,6.3,1.8,12.3l-0.1,16c0,4.6,0.2,7.9,0.7,10.1c0.4,2.2,1.3,4.5,2.5,7h-13.6
		c-0.4-0.9-0.8-2.3-1.3-4.1c-0.2-0.8-0.4-1.4-0.5-1.6c-2.3,2.3-4.9,4-7.5,5.1c-2.7,1.1-5.5,1.7-8.5,1.7c-5.3,0-9.5-1.4-12.6-4.3
		c-3.1-2.9-4.6-6.6-4.6-11c0-2.9,0.7-5.5,2.1-7.8c1.4-2.3,3.4-4.1,5.9-5.3c2.5-1.2,6.2-2.3,10.9-3.2c6.4-1.2,10.9-2.3,13.3-3.4v-1.4
		c0-2.6-0.7-4.5-2-5.6c-1.3-1.1-3.8-1.7-7.4-1.7c-2.4,0-4.3,0.5-5.7,1.4C236.1,31.5,235,33.1,234.2,35.5z M252.5,46.7
		c-1.8,0.6-4.5,1.3-8.3,2.1c-3.8,0.8-6.3,1.6-7.5,2.4c-1.8,1.3-2.7,2.9-2.7,4.8c0,1.9,0.7,3.6,2.1,5c1.4,1.4,3.3,2.1,5.5,2.1
		c2.5,0,4.8-0.8,7.1-2.4c1.7-1.2,2.8-2.8,3.3-4.5c0.4-1.2,0.5-3.4,0.5-6.7V46.7z"/>
</g>
<g class="st0">
	<path class="st2" d="M279.6,0H306c6,0,10.5,0.5,13.6,1.4c4.2,1.2,7.8,3.4,10.8,6.6c3,3.2,5.3,7,6.8,11.6c1.6,4.6,2.3,10.2,2.3,16.9
		c0,5.9-0.7,11-2.2,15.2c-1.8,5.2-4.3,9.4-7.7,12.6c-2.5,2.4-5.9,4.3-10.2,5.7c-3.2,1-7.5,1.5-12.8,1.5h-27.2V0z M294,12.1v47.4
		h10.8c4,0,6.9-0.2,8.7-0.7c2.3-0.6,4.3-1.6,5.8-3c1.5-1.4,2.8-3.7,3.8-6.9c1-3.2,1.5-7.6,1.5-13.1c0-5.5-0.5-9.8-1.5-12.7
		c-1-3-2.3-5.3-4.1-6.9s-4-2.8-6.7-3.4c-2-0.5-6-0.7-11.9-0.7H294z"/>
	<path class="st2" d="M385.9,71.6v-7.8c-1.9,2.8-4.4,4.9-7.4,6.5s-6.3,2.4-9.7,2.4c-3.5,0-6.6-0.8-9.4-2.3c-2.8-1.5-4.8-3.7-6-6.4
		c-1.2-2.8-1.9-6.6-1.9-11.5V19.7h13.7v23.8c0,7.3,0.3,11.8,0.8,13.4c0.5,1.6,1.4,2.9,2.8,3.9c1.3,1,3,1.4,5.1,1.4
		c2.3,0,4.4-0.6,6.3-1.9c1.9-1.3,3.1-2.9,3.8-4.8s1-6.6,1-14V19.7h13.7v51.9H385.9z"/>
	<path class="st2" d="M423.1,35.5l-12.5-2.2c1.4-5,3.8-8.7,7.2-11.1c3.4-2.4,8.5-3.6,15.2-3.6c6.1,0,10.7,0.7,13.7,2.2
		c3,1.4,5.1,3.3,6.3,5.5c1.2,2.2,1.8,6.3,1.8,12.3l-0.1,16c0,4.6,0.2,7.9,0.7,10.1c0.4,2.2,1.3,4.5,2.5,7h-13.6
		c-0.4-0.9-0.8-2.3-1.3-4.1c-0.2-0.8-0.4-1.4-0.5-1.6c-2.3,2.3-4.9,4-7.5,5.1c-2.7,1.1-5.5,1.7-8.5,1.7c-5.3,0-9.5-1.4-12.6-4.3
		c-3.1-2.9-4.6-6.6-4.6-11c0-2.9,0.7-5.5,2.1-7.8c1.4-2.3,3.4-4.1,5.9-5.3c2.5-1.2,6.2-2.3,10.9-3.2c6.4-1.2,10.9-2.3,13.3-3.4v-1.4
		c0-2.6-0.7-4.5-2-5.6c-1.3-1.1-3.8-1.7-7.4-1.7c-2.4,0-4.3,0.5-5.7,1.4C425,31.5,423.9,33.1,423.1,35.5z M441.5,46.7
		c-1.8,0.6-4.5,1.3-8.3,2.1c-3.8,0.8-6.3,1.6-7.5,2.4c-1.8,1.3-2.7,2.9-2.7,4.8c0,1.9,0.7,3.6,2.1,5c1.4,1.4,3.3,2.1,5.5,2.1
		c2.5,0,4.8-0.8,7.1-2.4c1.7-1.2,2.8-2.8,3.3-4.5c0.4-1.2,0.5-3.4,0.5-6.7V46.7z"/>
	<path class="st2" d="M468.5,71.6V0h13.7v71.6H468.5z"/>
</g>
</svg>
