<?xml version="1.0" encoding="UTF-8"?>
<svg width="195px" height="35px" viewBox="0 0 195 35" version="1.1" xmlns="http://www.w3.org/2000/svg" xmlns:xlink="http://www.w3.org/1999/xlink">
    <title>LOGO GESCOBRO</title>
    <defs>
        <polygon id="path-1" points="8.34496878 8.4 0.124763875 8.4 0.124763875 0.58998 8.34496878 0.58998 8.34496878 8.4"></polygon>
        <polygon id="path-3" points="8.45235528 8.4 0.232150366 8.4 0.232150366 0.58998 8.45235528 0.58998"></polygon>
    </defs>
    <g id="Gescobro-2020_02" stroke="none" stroke-width="1" fill="none" fill-rule="evenodd">
        <g id="Home" transform="translate(-55.000000, -24.000000)">
            <g id="LOGO-GESCOBRO" transform="translate(55.000000, 24.000000)">
                <path d="M19.8313463,11.11548 C19.8848292,13.82628 19.5921755,16.05888 17.7551273,18.18528 C15.9180792,20.31108 13.1237469,21.53388 10.3288137,21.53388 C4.68546429,21.53388 0,16.85628 0,11.22168 C0,5.48088 4.68546429,0.80328 10.4616196,0.80328 C13.9752671,0.80328 16.8236832,2.37108 18.9527842,5.13528 L17.3290668,6.65028 C15.6524674,4.28508 13.3893587,2.87628 10.4345776,2.87628 C5.85668012,2.87628 2.2366677,6.73008 2.2366677,11.24808 C2.2366677,13.37448 3.08818789,15.39408 4.57849845,16.90908 C6.04296894,18.37128 8.17267081,19.46088 10.2753307,19.46088 C13.7619363,19.46088 17.4360326,16.90908 17.4360326,13.18848 L11.4729876,13.18848 L11.4729876,11.11548 L19.8313463,11.11548 Z" id="Fill-1" fill="#FFFFFF"></path>
                <polygon id="Fill-3" fill="#FFFFFF" points="22.9950112 1.1487 33.4031478 1.1487 33.4031478 3.2217 25.231078 3.2217 25.231078 9.1749 33.163977 9.1749 33.163977 11.2485 25.231078 11.2485 25.231078 19.1151 33.4031478 19.1151 33.4031478 21.1881 22.9950112 21.1881"></polygon>
                <path d="M46.3110401,5.05572 C45.5124019,3.67332 44.5545168,2.87652 42.8502745,2.87652 C41.0667093,2.87652 39.5235168,4.15212 39.5235168,5.98572 C39.5235168,7.71372 41.307082,8.51052 42.6645866,9.12192 L43.9950494,9.70632 C46.6036938,10.84932 48.8133196,12.15192 48.8133196,15.34152 C48.8133196,18.84972 45.9919453,21.53352 42.5047388,21.53352 C39.283745,21.53352 36.8878304,19.46052 36.2490401,16.35132 L38.4322248,15.73992 C38.7248786,17.78652 40.295113,19.46052 42.4512559,19.46052 C44.6073988,19.46052 46.5772528,17.81292 46.5772528,15.55392 C46.5772528,13.21512 44.7408056,12.41772 42.8773165,11.56752 L41.6526177,11.03532 C39.310787,9.97272 37.2868491,8.77632 37.2868491,5.90592 C37.2868491,2.79672 39.9225354,0.80352 42.9037575,0.80352 C45.1398242,0.80352 47.0297543,1.94592 48.0946053,3.91272 L46.3110401,5.05572 Z" id="Fill-5" fill="#FFFFFF"></path>
                <path d="M67.3906416,5.53416 C65.7933652,3.88596 63.5843404,2.87616 61.2683497,2.87616 C56.7962161,2.87616 53.1762037,6.75696 53.1762037,11.16876 C53.1762037,15.58056 56.8226571,19.46076 61.3212317,19.46076 C63.5843404,19.46076 65.7933652,18.39756 67.3906416,16.80276 L67.3906416,19.56696 C65.6605593,20.81616 63.5308575,21.53376 61.4011556,21.53376 C55.7319661,21.53376 50.940137,16.93596 50.940137,11.24796 C50.940137,5.50776 55.6514413,0.80316 61.4011556,0.80316 C63.6372224,0.80316 65.6070764,1.44096 67.3906416,2.76996 L67.3906416,5.53416 Z" id="Fill-7" fill="#FFFFFF"></path>
                <path d="M72.3917152,11.16852 C72.3917152,15.68652 76.0646096,19.46052 80.617268,19.46052 C85.1687245,19.46052 88.8422199,15.68652 88.8422199,11.16852 C88.8422199,6.62352 85.2222075,2.87652 80.617268,2.87652 C76.0117276,2.87652 72.3917152,6.62352 72.3917152,11.16852 M91.0782866,11.19492 C91.0782866,16.96272 86.3399404,21.53352 80.617268,21.53352 C74.8939947,21.53352 70.1556484,16.96272 70.1556484,11.19492 C70.1556484,5.45472 74.8939947,0.80352 80.617268,0.80352 C86.3399404,0.80352 91.0782866,5.45472 91.0782866,11.19492" id="Fill-9" fill="#FFFFFF"></path>
                <path d="M96.3450922,19.11534 L98.5817599,19.11534 C101.083439,19.11534 103.719125,18.50394 103.719125,15.44754 C103.719125,12.33834 100.737903,11.88594 98.2885053,11.88594 L96.3450922,11.88594 L96.3450922,19.11534 Z M96.3450922,9.97254 L97.1972134,9.97254 C99.7259339,9.97254 101.882077,9.68034 101.882077,6.57054 C101.882077,3.54054 99.9651047,3.22194 97.2236543,3.22194 L96.3450922,3.22194 L96.3450922,9.97254 Z M94.1090255,1.14894 L97.4099432,1.14894 C101.056998,1.14894 104.118143,2.47794 104.118143,6.57054 C104.118143,8.19174 103.505794,9.57414 102.148289,10.47774 C104.544204,11.06214 105.954591,13.21494 105.954591,15.60714 C105.954591,19.59354 102.734198,21.18834 98.7674478,21.18834 L94.1090255,21.18834 L94.1090255,1.14894 Z" id="Fill-11" fill="#FFFFFF"></path>
                <path d="M111.46225,10.4244 L112.153922,10.4244 C114.682643,10.4244 117.237804,9.9462 117.237804,6.8364 C117.237804,3.5406 114.816049,3.222 112.12688,3.222 L111.46225,3.222 L111.46225,10.4244 Z M111.46225,21.1884 L109.225582,21.1884 L109.225582,1.149 L112.12688,1.149 C115.933782,1.149 119.474472,2.1588 119.474472,6.6768 C119.474472,9.7602 117.531059,11.9394 114.443472,12.2052 L120.831976,21.1884 L118.089925,21.1884 L112.021116,12.3912 L111.46225,12.3912 L111.46225,21.1884 Z" id="Fill-13" fill="#FFFFFF"></path>
                <path d="M124.875225,11.16852 C124.875225,15.68652 128.548119,19.46052 133.100778,19.46052 C137.652234,19.46052 141.32573,15.68652 141.32573,11.16852 C141.32573,6.62352 137.705717,2.87652 133.100778,2.87652 C128.495237,2.87652 124.875225,6.62352 124.875225,11.16852 M143.561796,11.19492 C143.561796,16.96272 138.82345,21.53352 133.100778,21.53352 C127.377505,21.53352 122.639158,16.96272 122.639158,11.19492 C122.639158,5.45472 127.377505,0.80352 133.100778,0.80352 C138.82345,0.80352 143.561796,5.45472 143.561796,11.19492" id="Fill-15" fill="#FFFFFF"></path>
                <path d="M6.38315637,28.93476 C6.08148866,28.40976 5.4883691,28.12836 4.83635823,28.12836 C3.66874798,28.12836 2.74451506,29.02236 2.56002904,30.15876 C2.38515792,31.31436 3.04618276,32.14956 4.23362376,32.14956 C4.85618898,32.14956 5.52682873,31.84896 6.00396848,31.37256 L5.6343955,33.65556 C4.97216879,33.84996 4.49562997,33.99576 3.9025104,33.99576 C2.88092655,33.99576 1.96630854,33.60696 1.31429767,32.91756 C0.623827174,32.18856 0.409895497,31.23696 0.585367547,30.14856 C0.740407919,29.14836 1.27583804,28.18656 2.08349022,27.46776 C2.91938618,26.72976 4.03892189,26.28276 5.06951972,26.28276 C5.68307096,26.28276 6.21790016,26.41896 6.75272935,26.65176 L6.38315637,28.93476 Z" id="Fill-17" fill="#B1B3B4"></path>
                <g id="Group-21" transform="translate(7.812112, 25.644120)">
                    <mask id="mask-2" fill="white">
                        <use xlink:href="#path-1"></use>
                    </mask>
                    <g id="Clip-20"></g>
                    <path d="M2.17014457,4.36878 C1.9658278,5.63118 2.75425016,6.55458 3.89181382,6.55458 C5.03057935,6.55458 6.11045357,5.63118 6.31416941,4.36878 C6.46981071,3.35838 5.68259022,2.43558 4.54382469,2.43558 C3.40566009,2.43558 2.32578587,3.35838 2.17014457,4.36878 M8.29904674,4.35918 C7.91925792,6.72918 5.95481227,8.40018 3.60036196,8.40018 C1.24591165,8.40018 -0.194521584,6.72918 0.185267236,4.35918 C0.535610404,2.14398 2.7248045,0.58998 4.83587748,0.58998 C6.94695047,0.58998 8.64938991,2.14398 8.29904674,4.35918" id="Fill-19" fill="#B1B3B4" mask="url(#mask-2)"></path>
                </g>
                <polygon id="Fill-22" fill="#B1B3B4" points="19.5255922 32.18874 21.8121373 32.18874 21.559145 33.80154 17.3658438 33.80154 18.5238391 26.47674 20.4305953 26.47674"></polygon>
                <polygon id="Fill-24" fill="#B1B3B4" points="25.313646 32.18874 27.600191 32.18874 27.3471988 33.80154 23.1538975 33.80154 24.3118929 26.47674 26.2186491 26.47674"></polygon>
                <polygon id="Fill-26" fill="#B1B3B4" points="31.7537106 28.08954 31.5596096 29.31354 33.7091422 29.31354 33.45615 30.92634 31.3060165 30.92634 31.1016997 32.18874 33.3690149 32.18874 33.1160227 33.80154 28.9419512 33.80154 30.0999466 26.47674 34.2734171 26.47674 34.0204248 28.08954"></polygon>
                <path d="M41.2776964,28.93476 C40.9760287,28.40976 40.3829092,28.12836 39.7308983,28.12836 C38.563288,28.12836 37.6390551,29.02236 37.4545691,30.15876 C37.279698,31.31436 37.9407228,32.14956 39.1281638,32.14956 C39.750729,32.14956 40.4213688,31.84896 40.8985085,31.37256 L40.5289356,33.65556 C39.8667089,33.84996 39.39017,33.99576 38.7970505,33.99576 C37.7754666,33.99576 36.8608486,33.60696 36.2088377,32.91756 C35.5183672,32.18856 35.3044356,31.23696 35.4799076,30.14856 C35.634948,29.14836 36.1703781,28.18656 36.9780303,27.46776 C37.8139262,26.72976 38.933462,26.28276 39.9640598,26.28276 C40.577611,26.28276 41.1124402,26.41896 41.6472694,26.65176 L41.2776964,28.93476 Z" id="Fill-28" fill="#B1B3B4"></path>
                <polygon id="Fill-30" fill="#B1B3B4" points="45.5769419 33.80124 43.6701857 33.80124 44.5751888 28.08924 42.998945 28.08924 43.2519373 26.47704 48.3111811 26.47704 48.0581888 28.08924 46.481945 28.08924"></polygon>
                <polygon id="Fill-32" fill="#B1B3B4" points="50.7229602 33.80124 48.816204 33.80124 49.9741994 26.47704 51.8809556 26.47704"></polygon>
                <g id="Group-36" transform="translate(52.881988, 25.644120)">
                    <mask id="mask-4" fill="white">
                        <use xlink:href="#path-3"></use>
                    </mask>
                    <g id="Clip-35"></g>
                    <path d="M2.27753106,4.36878 C2.07321429,5.63118 2.86103571,6.55458 3.99920031,6.55458 C5.13796584,6.55458 6.21784006,5.63118 6.4215559,4.36878 C6.5771972,3.35838 5.78997671,2.43558 4.65121118,2.43558 C3.51304658,2.43558 2.43317236,3.35838 2.27753106,4.36878 M8.40643323,4.35918 C8.02664441,6.72918 6.06219876,8.40018 3.70774845,8.40018 C1.35329814,8.40018 -0.0871350932,6.72918 0.292653727,4.35918 C0.642996894,2.14398 2.83219099,0.58998 4.94326398,0.58998 C7.05433696,0.58998 8.7567764,2.14398 8.40643323,4.35918" id="Fill-34" fill="#B1B3B4" mask="url(#mask-4)"></path>
                </g>
                <polygon id="Fill-37" fill="#B1B3B4" points="63.7005005 26.47704 65.6072567 26.47704 68.3895703 30.95484 68.4094011 30.95484 69.1197023 26.47704 71.0258576 26.47704 69.8684632 33.80124 67.961707 33.80124 65.1793933 29.31384 65.1601635 29.31384 64.4492613 33.80124 62.5425051 33.80124"></polygon>
                <path d="M81.2895303,28.3617 C80.9776467,28.0701 80.5696141,27.8757 80.1020893,27.8757 C79.7517461,27.8757 79.2463626,28.0797 79.1880722,28.4877 C79.1201669,28.9149 79.6063207,29.0805 79.9176033,29.1873 L80.3845272,29.3331 C81.3574356,29.6343 82.0677368,30.1491 81.8730349,31.3341 C81.7564542,32.0625 81.4644014,32.8107 80.8027756,33.3057 C80.1507648,33.7917 79.3533284,33.9957 78.6141825,33.9957 C77.6899495,33.9957 76.8336219,33.6849 76.1623812,33.1605 L77.2224247,31.6251 C77.6412741,32.0433 78.1472585,32.3829 78.7986685,32.3829 C79.2463626,32.3829 79.761962,32.1597 79.8400831,31.6449 C79.9272182,31.1109 79.207302,30.9261 78.8184992,30.8097 C77.6707197,30.4695 76.9309728,30.1587 77.1647352,28.7403 C77.3978967,27.2541 78.6141825,26.2827 80.0828595,26.2827 C80.8226064,26.2827 81.6885489,26.5161 82.2816685,26.8851 L81.2895303,28.3617 Z" id="Fill-39" fill="#B1B3B4"></path>
                <polygon id="Fill-41" fill="#B1B3B4" points="86.172641 28.08954 85.9785401 29.31354 88.1280727 29.31354 87.8750804 30.92634 85.7249469 30.92634 85.5206301 32.18874 87.7879453 32.18874 87.5349531 33.80154 83.3608817 33.80154 84.518877 26.47674 88.6923475 26.47674 88.4393553 28.08954"></polygon>
                <path d="M92.233037,29.76036 L92.4181239,29.76036 C93.0406891,29.76036 93.7606053,29.64396 93.8874019,28.84716 C94.0135975,28.05036 93.3327419,27.93456 92.7101767,27.93456 L92.5250898,27.93456 L92.233037,29.76036 Z M95.7839422,33.80136 L93.4102621,33.80136 L92.0581658,30.98436 L92.038936,30.98436 L91.5912419,33.80136 L89.6844857,33.80136 L90.8424811,26.47716 L93.6927,26.47716 C95.1421472,26.47716 96.1342854,27.16656 95.891509,28.73076 C95.7256519,29.74116 95.0249655,30.61536 93.9553071,30.79956 L95.7839422,33.80136 Z" id="Fill-43" fill="#B1B3B4"></path>
                <polygon id="Fill-45" fill="#B1B3B4" points="100.609123 30.92604 103.089769 26.47704 105.161782 26.47704 100.87173 33.80124 99.3934384 33.80124 97.4668514 26.47704 99.5388638 26.47704"></polygon>
                <polygon id="Fill-47" fill="#B1B3B4" points="107.36017 33.80124 105.453414 33.80124 106.611409 26.47704 108.518165 26.47704"></polygon>
                <path d="M115.59017,28.93476 C115.288502,28.40976 114.695382,28.12836 114.043371,28.12836 C112.875761,28.12836 111.951528,29.02236 111.767042,30.15876 C111.592171,31.31436 112.253196,32.14956 113.440637,32.14956 C114.063202,32.14956 114.733842,31.84896 115.210982,31.37256 L114.841409,33.65556 C114.179182,33.84996 113.702643,33.99576 113.109524,33.99576 C112.08794,33.99576 111.173322,33.60696 110.521311,32.91756 C109.83084,32.18856 109.616909,31.23696 109.792381,30.14856 C109.947421,29.14836 110.482851,28.18656 111.290503,27.46776 C112.126399,26.72976 113.245935,26.28276 114.276533,26.28276 C114.890084,26.28276 115.424913,26.41896 115.959743,26.65176 L115.59017,28.93476 Z" id="Fill-49" fill="#B1B3B4"></path>
                <polygon id="Fill-51" fill="#B1B3B4" points="119.78317 28.08954 119.589069 29.31354 121.738602 29.31354 121.48561 30.92634 119.335476 30.92634 119.131159 32.18874 121.398475 32.18874 121.145482 33.80154 116.971411 33.80154 118.129406 26.47674 122.302877 26.47674 122.049885 28.08954"></polygon>
                <path d="M128.188582,28.3617 C127.876698,28.0701 127.468666,27.8757 127.001141,27.8757 C126.650798,27.8757 126.145414,28.0797 126.087124,28.4877 C126.019219,28.9149 126.505372,29.0805 126.816655,29.1873 L127.283579,29.3331 C128.256487,29.6343 128.966789,30.1491 128.772087,31.3341 C128.655506,32.0625 128.363453,32.8107 127.701827,33.3057 C127.049816,33.7917 126.25238,33.9957 125.513234,33.9957 C124.589001,33.9957 123.732674,33.6849 123.061433,33.1605 L124.121476,31.6251 C124.540326,32.0433 125.04631,32.3829 125.69772,32.3829 C126.145414,32.3829 126.661014,32.1597 126.739135,31.6449 C126.82627,31.1109 126.106354,30.9261 125.717551,30.8097 C124.569771,30.4695 123.830025,30.1587 124.063787,28.7403 C124.296948,27.2541 125.513234,26.2827 126.981911,26.2827 C127.721658,26.2827 128.587,26.5161 129.18072,26.8851 L128.188582,28.3617 Z" id="Fill-53" fill="#B1B3B4"></path>
                <g id="Group-7" transform="translate(148.353806, 0.000300)">
                    <path d="M8.11257764,10.6497 C8.11257764,12.8865 6.29656211,14.6997 4.05628882,14.6997 C1.81601553,14.6997 7.67386155e-14,12.8865 7.67386155e-14,10.6497 C7.67386155e-14,8.4129 1.81601553,6.5997 4.05628882,6.5997 C6.29656211,6.5997 8.11257764,8.4129 8.11257764,10.6497" id="Fill-55" fill="#0078BB"></path>
                    <path d="M7.88722826,2.7372 C7.88722826,4.2492 6.65952484,5.4744 5.14577795,5.4744 C3.63143012,5.4744 2.40372671,4.2492 2.40372671,2.7372 C2.40372671,1.2252 3.63143012,2.13429274e-13 5.14577795,2.13429274e-13 C6.65952484,2.13429274e-13 7.88722826,1.2252 7.88722826,2.7372" id="Fill-57" fill="#0078BB"></path>
                    <path d="M14.4974767,2.7372 C14.4974767,4.2492 13.2697733,5.4744 11.7560264,5.4744 C10.2416786,5.4744 9.01397516,4.2492 9.01397516,2.7372 C9.01397516,1.2252 10.2416786,2.13429274e-13 11.7560264,2.13429274e-13 C13.2697733,2.13429274e-13 14.4974767,1.2252 14.4974767,2.7372" id="Fill-59" fill="#3393C9"></path>
                    <path d="M21.1077252,2.7372 C21.1077252,4.2492 19.8800217,5.4744 18.3662748,5.4744 C16.851927,5.4744 15.6242236,4.2492 15.6242236,2.7372 C15.6242236,1.2252 16.851927,2.13429274e-13 18.3662748,2.13429274e-13 C19.8800217,2.13429274e-13 21.1077252,1.2252 21.1077252,2.7372" id="Fill-61" fill="#66AED6"></path>
                    <path d="M15.0262365,19.20084 C15.0262365,20.85864 13.6801495,22.20204 12.0197753,22.20204 C10.360002,22.20204 9.01391506,20.85864 9.01391506,19.20084 C9.01391506,17.54304 10.360002,16.19964 12.0197753,16.19964 C13.6801495,16.19964 15.0262365,17.54304 15.0262365,19.20084" id="Fill-63" fill="#66AED6"></path>
                    <path d="M22.2732321,19.20084 C22.2732321,20.85864 20.9277461,22.20204 19.2673719,22.20204 C17.6069977,22.20204 16.2615116,20.85864 16.2615116,19.20084 C16.2615116,17.54304 17.6069977,16.19964 19.2673719,16.19964 C20.9277461,16.19964 22.2732321,17.54304 22.2732321,19.20084" id="Fill-65" fill="#99C9E4"></path>
                    <path d="M29.5207686,19.20084 C29.5207686,20.85864 28.1746817,22.20204 26.5149084,22.20204 C24.8545342,22.20204 23.5090481,20.85864 23.5090481,19.20084 C23.5090481,17.54304 24.8545342,16.19964 26.5149084,16.19964 C28.1746817,16.19964 29.5207686,17.54304 29.5207686,19.20084" id="Fill-67" fill="#CCE4F1"></path>
                    <path d="M27.7179736,2.7372 C27.7179736,4.2492 26.4902702,5.4744 24.9765233,5.4744 C23.4621755,5.4744 22.234472,4.2492 22.234472,2.7372 C22.234472,1.2252 23.4621755,2.13429274e-13 24.9765233,2.13429274e-13 C26.4902702,2.13429274e-13 27.7179736,1.2252 27.7179736,2.7372" id="Fill-69" fill="#99C9E4"></path>
                    <path d="M17.4963061,10.6497 C17.4963061,12.8865 15.6808915,14.6997 13.4400172,14.6997 C11.1997439,14.6997 9.38372842,12.8865 9.38372842,10.6497 C9.38372842,8.4129 11.1997439,6.5997 13.4400172,6.5997 C15.6808915,6.5997 17.4963061,8.4129 17.4963061,10.6497" id="Fill-71" fill="#3393C9"></path>
                    <path d="M26.7414596,10.6497 C26.7414596,12.8865 24.9254441,14.6997 22.6851708,14.6997 C20.4448975,14.6997 18.628882,12.8865 18.628882,10.6497 C18.628882,8.4129 20.4448975,6.5997 22.6851708,6.5997 C24.9254441,6.5997 26.7414596,8.4129 26.7414596,10.6497" id="Fill-73" fill="#66AED6"></path>
                    <path d="M36.125188,10.6497 C36.125188,12.8865 34.3097734,14.6997 32.0688992,14.6997 C29.8286259,14.6997 28.0126104,12.8865 28.0126104,10.6497 C28.0126104,8.4129 29.8286259,6.5997 32.0688992,6.5997 C34.3097734,6.5997 36.125188,8.4129 36.125188,10.6497" id="Fill-75" fill="#99C9E4"></path>
                    <path d="M45.1391632,10.6497 C45.1391632,12.8865 43.3237486,14.6997 41.0828744,14.6997 C38.8426011,14.6997 37.0265856,12.8865 37.0265856,10.6497 C37.0265856,8.4129 38.8426011,6.5997 41.0828744,6.5997 C43.3237486,6.5997 45.1391632,8.4129 45.1391632,10.6497" id="Fill-77" fill="#CCE4F1"></path>
                </g>
            </g>
        </g>
    </g>
</svg>